<mxfile host="app.diagrams.net" modified="2020-09-22T10:45:47.057Z" agent="5.0 (Windows NT 10.0; Win64; x64) AppleWebKit/537.36 (KHTML, like Gecko) Chrome/85.0.4183.102 Safari/537.36" etag="0B81O3sRajYU6eBfgKmH" version="13.7.3" type="github">
  <diagram id="C5RBs43oDa-KdzZeNtuy" name="Page-1">
    <mxGraphModel dx="716" dy="400" grid="1" gridSize="10" guides="1" tooltips="1" connect="1" arrows="1" fold="1" page="1" pageScale="1" pageWidth="827" pageHeight="1169" math="0" shadow="0">
      <root>
        <mxCell id="WIyWlLk6GJQsqaUBKTNV-0" />
        <mxCell id="WIyWlLk6GJQsqaUBKTNV-1" parent="WIyWlLk6GJQsqaUBKTNV-0" />
        <mxCell id="JN4EOCAk6Tm8TQnRhCR9-20" style="edgeStyle=orthogonalEdgeStyle;rounded=0;orthogonalLoop=1;jettySize=auto;html=1;entryX=0.5;entryY=0;entryDx=0;entryDy=0;" edge="1" parent="WIyWlLk6GJQsqaUBKTNV-1" source="WIyWlLk6GJQsqaUBKTNV-3" target="JN4EOCAk6Tm8TQnRhCR9-1">
          <mxGeometry relative="1" as="geometry" />
        </mxCell>
        <mxCell id="JN4EOCAk6Tm8TQnRhCR9-21" style="edgeStyle=orthogonalEdgeStyle;rounded=0;orthogonalLoop=1;jettySize=auto;html=1;entryX=0.5;entryY=0;entryDx=0;entryDy=0;" edge="1" parent="WIyWlLk6GJQsqaUBKTNV-1" source="WIyWlLk6GJQsqaUBKTNV-3" target="JN4EOCAk6Tm8TQnRhCR9-2">
          <mxGeometry relative="1" as="geometry" />
        </mxCell>
        <mxCell id="JN4EOCAk6Tm8TQnRhCR9-22" style="edgeStyle=orthogonalEdgeStyle;rounded=0;orthogonalLoop=1;jettySize=auto;html=1;" edge="1" parent="WIyWlLk6GJQsqaUBKTNV-1" source="WIyWlLk6GJQsqaUBKTNV-3" target="JN4EOCAk6Tm8TQnRhCR9-3">
          <mxGeometry relative="1" as="geometry" />
        </mxCell>
        <mxCell id="WIyWlLk6GJQsqaUBKTNV-3" value="Ohjelma aloitetaan" style="rounded=1;whiteSpace=wrap;html=1;fontSize=12;glass=0;strokeWidth=1;shadow=0;" parent="WIyWlLk6GJQsqaUBKTNV-1" vertex="1">
          <mxGeometry x="160" y="80" width="120" height="40" as="geometry" />
        </mxCell>
        <mxCell id="JN4EOCAk6Tm8TQnRhCR9-16" style="edgeStyle=orthogonalEdgeStyle;rounded=0;orthogonalLoop=1;jettySize=auto;html=1;entryX=0.5;entryY=0;entryDx=0;entryDy=0;" edge="1" parent="WIyWlLk6GJQsqaUBKTNV-1" source="JN4EOCAk6Tm8TQnRhCR9-1" target="JN4EOCAk6Tm8TQnRhCR9-12">
          <mxGeometry relative="1" as="geometry" />
        </mxCell>
        <mxCell id="JN4EOCAk6Tm8TQnRhCR9-1" value="Helppo vaikeustaso" style="rounded=0;whiteSpace=wrap;html=1;" vertex="1" parent="WIyWlLk6GJQsqaUBKTNV-1">
          <mxGeometry x="75" y="160" width="90" height="40" as="geometry" />
        </mxCell>
        <mxCell id="JN4EOCAk6Tm8TQnRhCR9-18" style="edgeStyle=orthogonalEdgeStyle;rounded=0;orthogonalLoop=1;jettySize=auto;html=1;entryX=0.5;entryY=0;entryDx=0;entryDy=0;" edge="1" parent="WIyWlLk6GJQsqaUBKTNV-1" source="JN4EOCAk6Tm8TQnRhCR9-2" target="JN4EOCAk6Tm8TQnRhCR9-12">
          <mxGeometry relative="1" as="geometry" />
        </mxCell>
        <mxCell id="JN4EOCAk6Tm8TQnRhCR9-2" value="Normaali vaikeustaso" style="rounded=0;whiteSpace=wrap;html=1;" vertex="1" parent="WIyWlLk6GJQsqaUBKTNV-1">
          <mxGeometry x="175" y="160" width="90" height="40" as="geometry" />
        </mxCell>
        <mxCell id="JN4EOCAk6Tm8TQnRhCR9-17" style="edgeStyle=orthogonalEdgeStyle;rounded=0;orthogonalLoop=1;jettySize=auto;html=1;entryX=0.5;entryY=0;entryDx=0;entryDy=0;" edge="1" parent="WIyWlLk6GJQsqaUBKTNV-1" source="JN4EOCAk6Tm8TQnRhCR9-3" target="JN4EOCAk6Tm8TQnRhCR9-12">
          <mxGeometry relative="1" as="geometry" />
        </mxCell>
        <mxCell id="JN4EOCAk6Tm8TQnRhCR9-3" value="Vaikea vaikeustaso" style="rounded=0;whiteSpace=wrap;html=1;" vertex="1" parent="WIyWlLk6GJQsqaUBKTNV-1">
          <mxGeometry x="275" y="160" width="90" height="40" as="geometry" />
        </mxCell>
        <mxCell id="JN4EOCAk6Tm8TQnRhCR9-24" value="" style="edgeStyle=orthogonalEdgeStyle;rounded=0;orthogonalLoop=1;jettySize=auto;html=1;" edge="1" parent="WIyWlLk6GJQsqaUBKTNV-1" source="JN4EOCAk6Tm8TQnRhCR9-12" target="JN4EOCAk6Tm8TQnRhCR9-23">
          <mxGeometry relative="1" as="geometry" />
        </mxCell>
        <mxCell id="JN4EOCAk6Tm8TQnRhCR9-12" value="Luodaan MiinakenttÃ¤, koko riippuu vaikeustasosta" style="rounded=1;whiteSpace=wrap;html=1;" vertex="1" parent="WIyWlLk6GJQsqaUBKTNV-1">
          <mxGeometry x="140" y="240" width="160" height="40" as="geometry" />
        </mxCell>
        <mxCell id="JN4EOCAk6Tm8TQnRhCR9-23" value="Luodaan Tile" style="whiteSpace=wrap;html=1;rounded=1;" vertex="1" parent="WIyWlLk6GJQsqaUBKTNV-1">
          <mxGeometry x="160" y="320" width="120" height="40" as="geometry" />
        </mxCell>
      </root>
    </mxGraphModel>
  </diagram>
</mxfile>
